<?xml version="1.0" encoding="utf-8"?>
<!-- Generator: Adobe Illustrator 18.1.1, SVG Export Plug-In . SVG Version: 6.00 Build 0)  -->
<svg version="1.1" id="Capa_1" xmlns="http://www.w3.org/2000/svg" xmlns:xlink="http://www.w3.org/1999/xlink" x="0px" y="0px"
	 viewBox="0 0 100 100" enable-background="new 0 0 100 100" xml:space="preserve">
<path fill="#FFFFFF" d="M95.3,11.5c0,1.3,0.1,2.4,0,3.4c0,0.3-0.3,0.7-0.6,0.9c-4.9,2.9-9.8,5.9-14.7,8.7c-1.4,0.8-3.2,1.2-4.8,1.3
	c-4.4,0.1-8.8,0-13.2-0.1c-0.4,0-0.8,0.1-1.5,0.1c0.6,0.5,0.8,0.8,1.1,1c0.8,0.5,1.6,1,2.4,1.5c2.2,1.6,3.7,3.4,4,6.4
	c0.3,3.4,1.2,6.7,1.9,10.1c0.4,1.9,0.1,3.1-1.2,4c-1.6,1.1-3.8,1.1-5.5-0.1c-2.4-1.7-3.8-4.3-4.7-7c-1-3-2.7-5.4-5.1-7.3
	c-0.8-0.6-1.3-0.6-2.1,0C39.2,43,27.3,51.7,15.5,60.5c-2,1.5-2.6,3-2,4.5c1,2.5,3.5,3.2,5.8,1.6c3.8-2.6,7.5-5.2,11.3-7.9
	c3.3-2.3,6.6-4.5,10-6.8c0.6-0.3,1.4-0.6,2-0.5c0.6,0.2,1.3,0.9,1.3,1.5c0.1,0.5-0.5,1.3-1,1.7c-3.3,2.3-6.6,4.6-9.9,6.8
	c-3.1,2.1-6.2,4.2-9.3,6.4c-2.2,1.6-2.4,4.4-0.4,5.8c1.4,1,3.8,0.9,5.4-0.2c5.8-4.2,11.6-8.4,17.4-12.6c0.8-0.6,1.6-1,2.5-0.2
	c1,0.9,1,2-0.3,3c-1.2,0.9-2.4,1.7-3.6,2.6c-4,2.9-8,5.7-12.1,8.6c-0.3,0.2-0.6,0.5-1,0.7c-1.6,1.3-1.9,3.2-0.8,4.9
	c1.1,1.6,3.3,2.1,5,1c3.3-2.2,6.4-4.6,9.7-6.9c1.3-1,2.7-2,4-2.9c1.4-1,2.5-1,3.3,0.1c0.7,1,0.5,1.7-1,2.8c-2.5,1.9-5,3.8-7.6,5.7
	c-0.4,0.3-0.8,0.6-1.1,1c-0.8,0.8-1,1.8-0.4,2.8c0.6,1,1.5,1.7,2.7,1.5c1.1-0.2,1.8-0.8,2.1-2c0.5-2.4,2.3-3.8,4.8-3.8
	c1.7-0.1,2.3-0.5,2.6-2.2c0.5-3,3.4-4.8,6.4-4c1.2,0.3,1.5,0,1.6-1.1c0.2-3.6,3-5.6,6.5-4.8c0.3,0.1,0.7,0.1,1.3,0.2
	c-0.1-0.6-0.2-1-0.3-1.5c-0.6-2.3,0-4.3,1.8-5.7c1.8-1.5,3.9-1.7,5.9-0.6c1.1,0.6,1.7,0.3,2.4-0.6c1.7-2,3.4-4,5.1-6
	c2.4-2.9,5.7-4.7,8.9-6.5c0.1-0.1,0.3-0.1,0.7-0.1c0,1.3,0.1,2.6,0,3.8c0,0.3-0.5,0.6-0.8,0.8c-5.4,2.5-8.7,7.3-12.4,11.6
	c-0.3,0.3-0.2,1.2,0.1,1.6c0.8,1.4,1.9,2.7,2.6,4.2c1,2.2,0.3,4.2-1.4,5.9c-1.6,1.6-3.5,2-5.7,1.2c-0.4-0.1-0.8-0.2-1.5-0.4
	c0.5,2.6-0.1,4.6-2.2,6c-2.1,1.4-4.1,1.1-6.4-0.5c-0.1,2.6-0.7,4.7-3,5.7c-2.2,1-4.3,0.3-6.1-1.3c-0.1,0.4-0.3,0.6-0.3,0.9
	c-0.3,3.4-2.4,5.3-5.8,4.7c-1-0.2-2-1.2-2.8-2c-0.7-0.6-1-1-2-0.5c-2.9,1.5-6.9,0-8.2-3.1c-0.4-1.1-0.8-1.5-2-0.7
	c-4.2,2.6-10.2-0.4-10.6-5.3c-0.1-1.1-0.5-1.6-1.6-1.7c-3.8-0.1-6.3-2.7-6.7-5.7c-0.1-0.9-0.7-1.1-1.5-1.1c-3.3-0.1-5.9-1.7-6.8-4.4
	c-1.1-3.1-0.2-6.2,2.4-8.4c1.4-1.2,1.4-1.2,0.4-2.7c-1.8-2.8-4.2-5-7.2-6.4c-0.9-0.4-1.2-1-1.2-2c0-11.4,0-22.9,0-34.4
	c0-0.5,0.1-1,0.1-1.5c2.5,1.1,4.8,2.2,7.2,3.3c4.5,2,8.9,4.1,13.4,6.1c2.4,1.1,4.9,1.4,7.5,0.7c5.3-1.3,10.6-1.7,15.9-0.2
	c3.8,1,7.5,0.8,11.2,0.9c4.5,0.1,9,0,13.5,0.2c3.1,0.1,5.5-1.4,8-2.9c4.2-2.4,8.4-4.9,12.6-7.3C94.3,11.8,94.7,11.7,95.3,11.5z"/>
</svg>
