<?xml version="1.0" encoding="utf-8"?>
<!-- Generator: Adobe Illustrator 18.1.1, SVG Export Plug-In . SVG Version: 6.00 Build 0)  -->
<svg version="1.1" id="Capa_1" xmlns="http://www.w3.org/2000/svg" xmlns:xlink="http://www.w3.org/1999/xlink" x="0px" y="0px"
	 viewBox="0 0 100 100" enable-background="new 0 0 100 100" xml:space="preserve">
<path fill="#FFFFFF" stroke="#FFFFFF" stroke-width="3" stroke-miterlimit="10" d="M60,10.3c6.4,0.3,7.1,5.2,7,11.5
	c0,6.8,0,9.8,0,15c0,3.6-1.4,5.9-4.4,7.9c0-0.8,0-1.6,0-2.3c0-7.3,0-14.6,0-22c0-4.2-1.5-5.7-5.7-5.7c-14.1,0-28.1,0-42.2,0
	c-4.2,0-5.7,1.5-5.7,5.7C9,37.3,9,54.1,9,71c0,4.2,1.5,5.7,5.7,5.8c7.6,0,15.3,0,23.1,0c0,1.4,0,2.7,0,4.3c-3.3,0-6.6,0-9.9,0
	c-3.8,0-7.7-0.2-11.5,0.1c-6,0-11.8-1.5-11.8-7c0-19,0-37.9,0-56.9c0-5.8,3-7,7-7C27.7,10.3,43.9,10.3,60,10.3z"/>
<path fill="#FFFFFF" d="M14,39c3,0,5.9,0,8.9,0c0,1.3,0,2.6,0,4c-3,0-5.9,0-8.9,0C14,41.7,14,40.4,14,39z"/>
<path fill="#FFFFFF" d="M22.9,33c0,1.4,0,2.5,0,3.8c-3,0-6,0-9,0c0-1.2,0-2.4,0-3.8C16.9,33,19.9,33,22.9,33z"/>
<path fill="#FFFFFF" d="M46,75.8c0,0-1.2,1.1-0.3,3.7c0.1,0.4,0.3,0.8,0.5,1.1c0.7,1.2,2,2,3.7,2.4c-0.1,0.7-0.1,1.7,0.2,2.7
	c0.2,0.6,0.4,1.2,0.8,1.6c0.9,1.2,2.3,1.9,4.2,2.1c0.5,1,2.6,6.1,9.2,4.5c3.2-0.8,9.2-2.5,16.7-8.6c3.3-2.7,7.1-6.6,14.5-8.8
	L90,58.4c0,0-4.2,1.6-8.2,1.4c-3.2-0.1-9.5-4-14.5-5.3c-2.2-0.6-5-0.9-7.3,2.3c-1.3,1.8-1.2,4.3-1.4,5.8l-13.1,3.9
	c-2.6,0.8-4.5,2.2-3.7,5.4C42.8,75,46,75.8,46,75.8z"/>
<path fill="#FFFFFF" d="M23.1,52.1c4.8,8,14.6,11.1,23,7.8l1.6,2.6l6.5-1.9l-2.5-4.1c6.8-5.9,8.5-16.1,3.7-24
	c-5.4-8.9-17.1-11.8-26-6.3C20.5,31.6,17.6,43.2,23.1,52.1z M31.5,29.7c7-4.2,16.1-2,20.3,5c4.2,7,2,16.1-5,20.3
	c-7,4.2-16.1,2-20.3-5C22.3,43,24.6,33.9,31.5,29.7z"/>
<g>
	<defs>
		<circle id="SVGID_1_" cx="38.9" cy="42.4" r="13.1"/>
	</defs>
	<clipPath id="SVGID_2_">
		<use xlink:href="#SVGID_1_"  overflow="visible"/>
	</clipPath>
	<path clip-path="url(#SVGID_2_)" fill="#FFFFFF" d="M25.2,39.9c4.7,0,11.9,0,16.6,0c0,1.6,0,3.2,0,4.9c-4.7,0-11.5,0-16.2,0
		C25.2,43.7,25.2,41.9,25.2,39.9z"/>
	<path clip-path="url(#SVGID_2_)" fill="#FFFFFF" d="M41.9,32.6c0,1.7,0,3.1,0,4.6c-4.7,0-11,0-15.7,0c0-1.5,1.8-4.1,2.7-4.6
		C33.5,32.6,37.1,32.6,41.9,32.6z"/>
</g>
</svg>
