<?xml version="1.0" encoding="utf-8"?>
<!-- Generator: Adobe Illustrator 18.1.1, SVG Export Plug-In . SVG Version: 6.00 Build 0)  -->
<svg version="1.1" id="Capa_1" xmlns="http://www.w3.org/2000/svg" xmlns:xlink="http://www.w3.org/1999/xlink" x="0px" y="0px"
	 viewBox="0 0 100 100" enable-background="new 0 0 100 100" xml:space="preserve">
<path fill="#FFFFFF" d="M9.8,48.1c0-13.2,0-26.3,0-39.5c0-2.4,1.7-4.1,4.1-4.1c19.2,0,38.4,0,57.6,0c2.7,0,4.6,1.8,4.6,4.5
	c0,13.3,0,26.6,0,39.9c0,0.6-0.3,1.3-0.8,1.7c-4.3,4.4-8.7,8.7-13.1,13c-0.8,0.8-1.4,0.8-2.3,0.3c-8.4-5-19.4-1.4-23.5,7.5
	c-3,6.4-1.4,14.4,3.7,18.9c0.3,0.3,0.5,0.8,0.7,1.2c-0.5,0.1-0.9,0.3-1.4,0.3c-8.4,0-16.8,0-25.2,0c-1.7,0-3.1-0.4-3.9-1.9
	c-0.3-0.6-0.5-1.4-0.5-2.1C9.8,74.6,9.8,61.3,9.8,48.1z M50.4,11.7c-4.6,0-9.2,0-13.8,0c-0.7,0-1.5,0.1-2.2,0.4
	c-2.3,0.9-3.2,3.3-2.5,6.4c0.4,2,2.2,3.4,4.4,3.4c9.3,0,18.6,0,27.9,0c3,0,4.7-1.9,4.7-5.2c0-3.2-1.7-5-4.8-5
	C59.5,11.7,54.9,11.7,50.4,11.7z M50.2,43c-4.6,0-9.1,0-13.7,0c-3.1,0-4.8,1.7-4.8,4.8c-0.1,3.5,1.5,5.4,4.7,5.4
	c9.2,0,18.5,0,27.8,0c3.1,0,4.7-1.9,4.7-5.4C68.8,44.8,67,43,64.1,43C59.5,43,54.9,43,50.2,43z M50.2,27.8c-4.7,0-9.4,0-14.1,0
	c-2.6,0-4.3,1.7-4.4,4.2c0,0.4,0,0.8,0,1.2c0.1,3,1.7,4.6,4.7,4.6c9.2,0,18.4,0,27.6,0c3.1,0,4.8-1.7,4.8-5c0-3.3-1.7-5.1-4.8-5.1
	C59.5,27.8,54.8,27.8,50.2,27.8z M21.6,53.4c2.6,0,4.9-2.3,4.9-4.9c0-2.6-2.3-4.9-4.9-4.9c-2.6,0-4.9,2.2-4.9,4.8
	C16.6,51.1,18.8,53.4,21.6,53.4z M21.5,21.6c2.6,0,4.9-2.2,5-4.9c0.1-2.6-2.3-4.9-4.9-5c-2.7,0-4.9,2.2-4.9,4.9
	C16.7,19.4,18.8,21.5,21.5,21.6z M21.6,27.4c-2.8,0-4.9,2.1-4.9,4.9c0,2.7,2.2,5,4.9,5c2.6,0,5-2.4,5-4.9
	C26.5,29.6,24.3,27.4,21.6,27.4z"/>
<path fill="#FFFFFF" d="M61.6,95.5c-2.1,0.3-3.6-0.8-5-2.1c-3.7-3.5-7.2-7.1-10.8-10.7c-2.2-2.3-2.7-5.2-1.4-7.9
	c1.3-2.8,3.9-4.4,7.1-4.3c1.8,0.1,3.4,0.9,4.7,2.1c0.9,0.8,1.7,1.7,2.6,2.5c2,1.7,3.9,1.7,5.9-0.1c1.7-1.6,3.4-3.3,5-5
	c4.7-4.7,9.5-9.3,14.1-14.1c4-4.2,10.1-2.4,12.2,2.2c1.2,2.6,0.2,5.9-2.1,8.2c-4.1,4.1-8.2,8.2-12.3,12.3c-4.7,4.7-9.3,9.4-14,14
	c-1,1-2.2,1.9-3.5,2.6C63.4,95.5,62.5,95.4,61.6,95.5z"/>
</svg>
