<?xml version="1.0" encoding="utf-8"?>
<!-- Generator: Adobe Illustrator 18.1.1, SVG Export Plug-In . SVG Version: 6.00 Build 0)  -->
<svg version="1.1" id="Capa_1" xmlns="http://www.w3.org/2000/svg" xmlns:xlink="http://www.w3.org/1999/xlink" x="0px" y="0px"
	 viewBox="0 0 100 100" enable-background="new 0 0 100 100" xml:space="preserve">
<path fill="#FFFFFF" d="M23.7,58.5c5.8,5.7,10.5,10.6,15.5,15.2c6.5,6,15.1,6.5,23.2,7.3c3.9,0.4,6.9-4.3,5.7-8.5
	c-2.4-8.4-4.6-16.6-11.8-23c-10.5-9.2-19.9-19.6-30-29.1c-3.9-3.8-3.2-8-2.1-12.1c1.1-3.9,5-3.6,8.4-3.6c7.3,0,14.7,0.1,22,0
	c4.1-0.1,6.1,1.7,6,5.9c-0.1,6.4-0.1,12.9,0,19.3c0,5.5,1.1,6.7,6.5,6.7c6.9,0.1,13.8,0.1,20.7,0c3.9-0.1,5.7,1.7,5.7,5.6
	c-0.1,15.3,0,30.7-0.1,46c0,4.8-2,6.7-7,6.7c-18.6,0.1-37.3,0-55.9,0c-3.6,0-6.6-1.2-6.7-5.1C23.5,80,23.7,69.9,23.7,58.5z"/>
<path fill="#FFFFFF" d="M41.6,67.9c-8.7-9.2-17.5-18.5-26.1-27.5c3.2-3.2,7.2-7.3,11.4-11.6C35.6,38,44.3,47.2,53,56.4
	C49.8,59.6,45.8,63.7,41.6,67.9z"/>
<path fill="#FFFFFF" d="M67.8,17.5c0-3.3-0.1-6.5,0.1-9.8c0-0.8,0.6-2.3,1-2.3c0.9-0.2,2.1,0.2,2.8,0.8c6.8,6.6,13.6,13.3,20.3,20.1
	c0.6,0.6,1.4,2.1,1.1,2.8c-0.4,0.7-1.7,1.2-2.8,1.2c-6.4,0.1-12.8,0.2-19.2-0.1c-1.1-0.1-2.9-2-3.1-3.2
	C67.5,23.8,67.8,20.6,67.8,17.5z"/>
<path fill="#FFFFFF" d="M22.1,24.2c-4.3,4.2-8.4,8.2-12.4,12.2c-7.4-5.9-8.2-8-4-12.3C13.5,15.7,14.4,15.7,22.1,24.2z"/>
<path fill="#FFFFFF" d="M47.2,72.5c3.9-4.1,7.6-7.9,11.5-11.8c1.5,4.7,2.9,9.4,4.8,15.5C57.1,74.7,52.2,73.6,47.2,72.5z"/>
</svg>
