<?xml version="1.0" encoding="utf-8"?>
<!-- Generator: Adobe Illustrator 18.1.1, SVG Export Plug-In . SVG Version: 6.00 Build 0)  -->
<svg version="1.1" id="Capa_1" xmlns="http://www.w3.org/2000/svg" xmlns:xlink="http://www.w3.org/1999/xlink" x="0px" y="0px"
	 viewBox="0 0 100 100" enable-background="new 0 0 100 100" xml:space="preserve">
<path fill-rule="evenodd" clip-rule="evenodd" fill="#FFFFFF" d="M11.9,89.3c25.9,0,51.9,0,77.8,0c5.7,0,5.7-3.1,5.9-9
	c0.6-12.6,1.2-25.3,1.8-37.9c0.1-5.7,0.1-7.5-7.4-7c-27.4,0-54.9,0-82.3,0c-5.6,0-6.1,2.1-5.4,9.2c0.7,12,1.3,24.1,2,36.1
	C5,86.4,5.5,89.6,11.9,89.3z"/>
<path fill-rule="evenodd" clip-rule="evenodd" fill="#FFFFFF" d="M5,32.6C5,25.9,4.9,19.2,4.8,12.5c-0.2-4.5,3.5-5,6.7-5
	C19.4,7.8,27.3,8,35.2,8.3c4.5,0.6,5,2,5,7.8c15.6,0.1,31.3,0.1,46.9,0.2c7.6-0.2,7.2,4.4,7.7,10.4c0.1,1.9,0.1,3.7,0.2,5.6
	c-2.3,0.1-4.6,0.3-6.8,0.4c-0.1-1.3-0.1-2.5-0.2-3.8c-0.1-3.2-1-4.2-4.7-4c-22.8,0-45.5,0-68.3,0c-2.7-0.1-3.7,1.5-3.4,5.2
	c0,0.8,0,1.6,0,2.4C9.5,32.6,7.2,32.6,5,32.6z"/>
</svg>
