<?xml version="1.0" encoding="utf-8"?>
<!-- Generator: Adobe Illustrator 18.1.1, SVG Export Plug-In . SVG Version: 6.00 Build 0)  -->
<svg version="1.1" id="Capa_1" xmlns="http://www.w3.org/2000/svg" xmlns:xlink="http://www.w3.org/1999/xlink" x="0px" y="0px"
	 viewBox="0 0 100 100" enable-background="new 0 0 100 100" xml:space="preserve">
<path fill="#FFFFFF" d="M19.4,7.7h44.1c3.6,0,6.9,1.3,9.3,3.5c2.4,2.2,3.8,5.2,3.8,8.5v19.5c-0.9-0.1-1.9-0.1-2.9-0.1
	c-2.1,0-4.2,0.2-6.2,0.7V19.7c0-1-0.5-1.9-1.2-2.6c-0.7-0.7-1.7-1.1-2.8-1.1H19.4c-1.1,0-2.1,0.4-2.8,1.1c-0.7,0.7-1.2,1.6-1.2,2.6
	v66.2c0,1,0.5,1.9,1.2,2.6c0.7,0.7,1.7,1.1,2.8,1.1h36.7c3.9,3.4,9,5.7,14.6,6.3c-2.1,1.2-4.5,2-7.2,2H19.4c-3.6,0-6.9-1.3-9.3-3.5
	c-2.4-2.2-3.8-5.2-3.8-8.5V19.7c0-3.3,1.5-6.3,3.8-8.5C12.5,9,15.8,7.7,19.4,7.7z"/>
<path fill-rule="evenodd" clip-rule="evenodd" fill="#FFFFFF" d="M24.2,28.4H59c1.1,0,1.9,0.8,1.9,1.7v2.2c0,0.9-0.9,1.7-1.9,1.7
	H24.2c-1.1,0-1.9-0.8-1.9-1.7v-2.2C22.2,29.2,23.1,28.4,24.2,28.4z"/>
<path fill-rule="evenodd" clip-rule="evenodd" fill="#FFFFFF" d="M24.2,39.5H59c1.1,0,1.9,0.8,1.9,1.7v2.2c0,0.9-0.9,1.7-1.9,1.7
	H24.2c-1.1,0-1.9-0.8-1.9-1.7v-2.2C22.2,40.2,23.1,39.5,24.2,39.5z"/>
<path fill-rule="evenodd" clip-rule="evenodd" fill="#FFFFFF" d="M23.8,71V53.8c0-0.5,0.4-1,1-1h1.3c0.5,0,1,0.4,1,1V71
	c0,0.5-0.4,1-1,1h-1.3C24.2,72,23.8,71.6,23.8,71z"/>
<path fill-rule="evenodd" clip-rule="evenodd" fill="#FFFFFF" d="M28.6,71.3V58c0-0.4,0.4-0.7,1-0.7H31c0.5,0,1,0.3,1,0.7v13.3
	c0,0.4-0.4,0.7-1,0.7h-1.3C29.1,72,28.6,71.7,28.6,71.3z"/>
<path fill-rule="evenodd" clip-rule="evenodd" fill="#FFFFFF" d="M33.9,71.5v-8.6c0-0.3,0.4-0.5,1-0.5h1.3c0.5,0,1,0.2,1,0.5v8.6
	c0,0.3-0.4,0.5-1,0.5h-1.3C34.4,72,33.9,71.8,33.9,71.5z"/>
<path fill-rule="evenodd" clip-rule="evenodd" fill="#FFFFFF" d="M39.6,71.1V55.4c0-0.5,0.4-0.9,1-0.9H42c0.5,0,1,0.4,1,0.9v15.7
	c0,0.5-0.4,0.9-1,0.9h-1.3C40.1,72,39.6,71.6,39.6,71.1z"/>
<path fill-rule="evenodd" clip-rule="evenodd" fill="#FFFFFF" d="M27.4,4.4h28.5c1.5,0,2.7,1.2,2.7,2.7v3.6c0,1.5-1.2,2.7-2.7,2.7
	H27.4c-1.5,0-2.7-1.2-2.7-2.7V7.1C24.7,5.7,25.9,4.4,27.4,4.4z"/>
<path fill="#FFFFFF" d="M27.4,3.6h28.5c1,0,1.9,0.4,2.6,1.1c0.6,0.6,1,1.5,1,2.5v3.6c0,1-0.4,1.8-1,2.5c-0.7,0.7-1.6,1.1-2.6,1.1
	H27.4c-1,0-1.9-0.4-2.6-1.1c-0.6-0.6-1-1.5-1-2.5V7.1c0-1,0.4-1.8,1-2.5C25.4,4,26.4,3.6,27.4,3.6L27.4,3.6z M55.8,5.3H27.4
	c-0.5,0-0.9,0.2-1.2,0.5c-0.3,0.3-0.5,0.8-0.5,1.3v3.6c0,0.5,0.2,1,0.5,1.3c0.3,0.3,0.7,0.5,1.2,0.5h28.5c0.5,0,0.9-0.2,1.2-0.5
	c0.3-0.3,0.5-0.8,0.5-1.3V7.1c0-0.5-0.2-1-0.5-1.3C56.7,5.5,56.3,5.3,55.8,5.3z"/>
<path fill-rule="evenodd" clip-rule="evenodd" fill="#FFFFFF" d="M41.2,9.7c3,0,5.4-2.2,5.4-4.8c0-2.7-2.4-4.8-5.4-4.8
	s-5.4,2.2-5.4,4.8C35.8,7.5,38.2,9.7,41.2,9.7z"/>
<path fill="#FFFFFF" d="M73.8,49.7c6.5,0,12.5,2.4,16.7,6.3c4.3,3.9,6.9,9.3,6.9,15.3c0,6-2.7,11.4-6.9,15.3
	C86.2,90.6,80.3,93,73.8,93c-6.5,0-12.5-2.4-16.7-6.3c-4.3-3.9-6.9-9.3-6.9-15.3c0-6,2.7-11.4,6.9-15.3
	C61.3,52.1,67.2,49.7,73.8,49.7L73.8,49.7z M85.1,61c-2.9-2.7-6.9-4.3-11.3-4.3c-4.4,0-8.4,1.6-11.3,4.3c-2.9,2.7-4.7,6.3-4.7,10.4
	c0,4,1.8,7.7,4.7,10.4c2.9,2.7,6.9,4.3,11.3,4.3c4.4,0,8.4-1.6,11.3-4.3c2.9-2.7,4.7-6.3,4.7-10.4C89.8,67.3,88,63.6,85.1,61z"/>
<path fill-rule="evenodd" clip-rule="evenodd" fill="#FFFFFF" d="M73.8,74.8c2.1,0,3.8-1.6,3.8-3.5c0-1.9-1.7-3.5-3.8-3.5
	c-2.1,0-3.8,1.6-3.8,3.5C70,73.2,71.7,74.8,73.8,74.8z"/>
<rect x="72.7" y="61.3" fill-rule="evenodd" clip-rule="evenodd" fill="#FFFFFF" width="2.6" height="14.6"/>
<polygon fill-rule="evenodd" clip-rule="evenodd" fill="#FFFFFF" points="85.1,58 90.3,52.8 94.3,56.1 89.1,61.3 "/>
<path fill-rule="evenodd" clip-rule="evenodd" fill="#FFFFFF" d="M89,51.2l1.1-1.1c0.6-0.6,1.5-0.6,2.1-0.1l5.2,4.3
	c0.6,0.5,0.7,1.4,0.1,1.9l-1.1,1.1c-0.6,0.6-1.5,0.6-2.1,0.1l-5.2-4.3C88.4,52.6,88.4,51.8,89,51.2z"/>
<polygon fill-rule="evenodd" clip-rule="evenodd" fill="#FFFFFF" points="71.3,53.6 71.4,45.6 75.7,45.7 75.5,53.7 "/>
<path fill-rule="evenodd" clip-rule="evenodd" fill="#FFFFFF" d="M66.4,45.1l0.1-1.7c0-0.9,1.1-1.5,2.3-1.5L79,42.1
	c1.2,0,2.2,0.7,2.1,1.6l-0.1,1.7c0,0.9-1.1,1.5-2.3,1.5l-10.3-0.2C67.3,46.7,66.3,46,66.4,45.1z"/>
</svg>
