<?xml version="1.0" encoding="utf-8"?>
<!-- Generator: Adobe Illustrator 18.1.1, SVG Export Plug-In . SVG Version: 6.00 Build 0)  -->
<svg version="1.1" id="Capa_1" xmlns="http://www.w3.org/2000/svg" xmlns:xlink="http://www.w3.org/1999/xlink" x="0px" y="0px"
	 viewBox="0 0 100 100" enable-background="new 0 0 100 100" xml:space="preserve">
<path fill="#FFFFFF" d="M70.2,7.8c-1.7,0.5-2.7,1.6-3.4,3.2c-2.5,5.1-5,10.1-7.5,15.1c-0.1,0.3-0.3,0.6-0.6,1.1
	c0-0.4-0.1-0.6-0.1-0.8c0-2,0-4,0-6c0-2.7-1.7-4.4-4.3-4.4c-5.3,0-10.6,0-15.9,0c-2.7,0-4.4,1.7-4.4,4.4c0,2.6,0,5.2,0,7.9
	c2.7,0,5.4,0,8.2,0c0-1.3,0-2.6,0-4c2.8,0,5.4,0,8.2,0c0,1.3,0,2.6,0,4c0.4,0,0.6,0,0.9,0c5.1,0,10.2,0,15.3,0
	c0.6,0,0.9-0.2,1.2-0.8c1.6-3.2,3.2-6.4,4.8-9.7c1.8,1.2,3.6,2.4,5.4,3.6c-1.1,2.3-2.2,4.5-3.4,6.8c3,0,5.9,0,8.8,0
	c0.2,0,0.5-0.2,0.6-0.4c1-2,2-3.9,3-5.9c0.9-2,0.4-4-1.4-5.3c-4-2.7-8.1-5.4-12.2-8.1c-0.5-0.3-1-0.5-1.6-0.8
	C71.2,7.8,70.7,7.8,70.2,7.8z"/>
<path fill="#FFFFFF" d="M29.6,32.4c-0.6-2.5-1.2-5-1.7-7.4c-0.7-3.2-1.5-6.5-2.2-9.7c-0.5-2.1-1.9-3.4-4.1-3.4c-5.3-0.1-10.7,0-16,0
	c-0.1,0-0.2,0-0.4,0.1c0,2.7,0,5.4,0,8.2c0.3,0,0.6,0,0.9,0c3.8,0,7.6,0,11.4,0c0.6,0,0.9,0.2,1,0.8c3.4,14.8,6.8,29.5,10.2,44.3
	c0.4,1.7,0.8,3.4,1.2,5.1c0.5,2.1,2,3.3,4.2,3.3c13.6,0,27.1,0,40.7,0c2.3,0,3.7-1.2,4.3-3.5c1.6-6.3,3.2-12.6,4.7-18.9
	c1.1-4.3,2.1-8.7,3.3-13c0.8-3-1-5.7-4.4-5.7c-17.3,0-34.6,0-51.9,0C30.4,32.4,30,32.4,29.6,32.4z"/>
<path fill="#FFFFFF" d="M29.8,85.8c0,4.5,3.7,8.2,8.2,8.2c4.5,0,8.2-3.7,8.3-8.1c0-4.5-3.7-8.3-8.2-8.3
	C33.6,77.6,29.8,81.3,29.8,85.8z"/>
<path fill="#FFFFFF" d="M62.7,85.9c0,4.5,3.7,8.2,8.2,8.2c4.5,0,8.2-3.8,8.2-8.4c0-4.4-3.8-8.1-8.2-8.1
	C66.4,77.6,62.7,81.4,62.7,85.9z"/>
</svg>
