<?xml version="1.0" encoding="utf-8"?>
<!-- Generator: Adobe Illustrator 18.1.1, SVG Export Plug-In . SVG Version: 6.00 Build 0)  -->
<svg version="1.1" id="Capa_1" xmlns="http://www.w3.org/2000/svg" xmlns:xlink="http://www.w3.org/1999/xlink" x="0px" y="0px"
	 viewBox="0 0 100 100" enable-background="new 0 0 100 100" xml:space="preserve">
<path fill="#FFFFFF" d="M80.2,55.2c-1.3-0.6-2.5-1.1-3.6-1.7c-2.9-1.6-2.8-1.6-2.8-4.9c0-11.9,0-23.8,0-35.8c0-1.5-0.4-1.9-1.9-1.9
	c-20.4,0-40.8,0-61.1,0c-0.3,0-0.7,0-1,0c-1.3,0-1.8,0.4-1.8,1.8C8,19.9,8,27,8,34.2c0,8.1,0,16.2,0,24.2c0,1.5,0.4,1.9,1.9,1.9
	c14.5,0,29,0,43.6,0c0.8,0,1.2,0.3,1.7,0.8c1.5,1.6,3.2,3,4.8,4.4c0.4,0.4,0.8,0.7,1.4,1.2c-0.4,0-0.6,0.1-0.9,0.1
	c-17.4,0-34.9,0-52.3,0c-3.8,0-6.7-2.9-6.7-6.7c0-16.3,0-32.5,0-48.8c0-4,2.8-6.9,6.8-6.9c21.7,0,43.5,0,65.2,0
	c3.8,0,6.7,2.8,6.7,6.7c0,14.3,0,28.6,0,42.9C80.3,54.4,80.2,54.7,80.2,55.2z"/>
<path fill="#FFFFFF" d="M96.6,83.3c-6.5,0-12.9,0-19.5,0c0-0.8,0-1.6,0-2.3c0-0.3-0.2-0.8-0.4-0.9c-3.4-2.1-5.2-5.4-6.1-9.2
	c-0.5-2.1-1.5-3.5-3.1-4.7c-2.6-2-5.2-4.2-7.7-6.3c-1.6-1.4-2.7-3-2.3-5.3c0.5-2.7,3-4.4,5.8-4c1.8,0.3,3.3,1.1,4.8,2.2
	c2.3,1.7,4.5,3.4,7,4.8c1.5,0.9,3.3,1.4,5,1.8c2.6,0.5,4.6-1.1,5-3.7c0.3-2.2,0.1-4.3-1.1-6.2c-0.1-0.2-0.3-0.5-0.3-0.8
	c0-4.2,0-8.5,0-13c0.6,0.4,1.1,0.7,1.5,1.1c3.1,3,6.2,6,9.3,9c1,1,1.9,2,2.9,3c2.2,2.3,3.1,5,2.4,8.1C98.1,65.5,97,74.2,96.7,83
	C96.7,83,96.6,83.1,96.6,83.3z"/>
<path fill="#FFFFFF" d="M27.4,19.2c0,6.1,0,12.2,0,18.4c6.2,0,12.2,0,18.3,0c0.4,6.9-7.1,14.2-15.3,14.8c-8.8,0.7-17-5.8-17.8-15.4
	C11.9,27.6,18.9,20.1,27.4,19.2z"/>
<path fill="#FFFFFF" d="M86.9,96.5c-3.4,0-6.8,0-10.3,0c-1.9,0-2.8-0.9-2.8-2.8c0-1.4,0-2.9,0-4.3c0-1.7,1-2.6,2.6-2.6
	c7,0,14,0,20.9,0c1.6,0,2.6,1,2.6,2.6c0,1.5,0,3,0,4.5c0,1.7-1,2.6-2.6,2.6C93.9,96.5,90.4,96.5,86.9,96.5z"/>
<path fill="#FFFFFF" d="M45.9,33.7c-4.8,0-9.6,0-14.5,0c0-4.8,0-9.7,0-14.5C38.5,19.6,44.8,25.9,45.9,33.7z"/>
<path fill="#FFFFFF" d="M58.8,34c-2.3,0-4.5,0-6.8,0c-1,0-1.4-0.4-1.3-1.3c0-0.3,0-0.6,0-0.9c0-0.6,0.3-1,0.9-1c4.8,0,9.6,0,14.5,0
	c0.6,0,0.9,0.3,0.9,1c0,0.3,0,0.5,0,0.8c0,1.3-0.1,1.4-1.4,1.4C63.4,34,61.1,34,58.8,34L58.8,34z"/>
<path fill="#FFFFFF" d="M58.9,37.4c2.3,0,4.7,0,7,0c0.9,0,1.3,0.4,1.2,1.3c0,0.3,0,0.6,0,0.9c0,0.7-0.3,1-1,1c-4.8,0-9.6,0-14.4,0
	c-0.7,0-1-0.3-1-1c0-0.3,0-0.6,0-0.9c-0.1-0.9,0.3-1.3,1.2-1.3C54.3,37.4,56.6,37.4,58.9,37.4L58.9,37.4z"/>
<path fill="#FFFFFF" d="M55.7,27.5c-1.2,0-2.5,0-3.7,0c-0.9,0-1.3-0.3-1.2-1.2c0-0.2,0-0.5,0-0.7c-0.1-1,0.3-1.3,1.3-1.3
	c2.4,0,4.7,0,7.1,0c1.3,0,1.4,0.1,1.4,1.4c0,0.2,0,0.5,0,0.7c0,0.7-0.3,1.1-1.1,1.1C58.2,27.4,56.9,27.5,55.7,27.5z"/>
</svg>
