<?xml version="1.0" encoding="utf-8"?>
<!-- Generator: Adobe Illustrator 18.1.1, SVG Export Plug-In . SVG Version: 6.00 Build 0)  -->
<svg version="1.1" id="Capa_1" xmlns="http://www.w3.org/2000/svg" xmlns:xlink="http://www.w3.org/1999/xlink" x="0px" y="0px"
	 viewBox="0 0 100 100" enable-background="new 0 0 100 100" xml:space="preserve">
<g id="Capa_x0020_1">
	<g id="_329190896">
		<path id="_335286432" fill="#FFFFFF" stroke="#FFFFFF" stroke-width="0.2" d="M89.1,49.9c0,10.9-0.1,21.7,0,32.6
			c0.1,5.2-2.6,8.5-6.8,11c-2.1,1.2-4.4,1.8-6.9,1.8c-16.2-0.1-32.5-0.1-48.7,0c-5.9,0-11.4-4.1-13.3-10c-0.2-0.7-0.2-1.5-0.2-2.2
			c0-18.6,0-37.2,0-55.8c0-2,1-3.6,2.1-5C21.2,14.4,28.9,8.8,37.9,5c0.7-0.3,1.6-0.2,2.4-0.2c11.8,0,23.7,0.1,35.5,0
			c5.7-0.1,9.5,2.6,12.2,7.3c0.7,1.2,1.1,2.8,1.1,4.2C89.2,27.4,89.1,38.6,89.1,49.9L89.1,49.9z M82.4,49.9
			C82.4,49.9,82.4,49.9,82.4,49.9c0-10.6,0-21.2,0-31.9c0-4-2.6-6.8-6.6-7c-1.2-0.1-2.4,0-3.6,0c-9.7,0-19.4,0-29.1,0
			c-1.7,0-2.3,0.5-2.1,2.2c0.1,1.4,0,2.8,0,4.2c-0.1,6.3-3.2,9.6-9.6,9.8c-3,0.1-5.9,0-8.8,0c-2.4,0-2.4,0-2.4,2.4
			c0,17.1,0,34.3,0,51.4c0,4.9,2.7,7.6,7.6,7.6c15.5,0,31.1-0.1,46.6,0c4.4,0,8.3-2.2,8.1-8.2C82.2,70.3,82.4,60.1,82.4,49.9
			L82.4,49.9z"/>
		<path id="_335286576" fill="#FFFFFF" stroke="#FFFFFF" stroke-width="0.2" d="M51.4,48.3c-7.2,0-14.3,0-21.5,0
			c-1.8,0-2.9-0.9-2.9-2.4c0-1.6,1-2.5,2.9-2.5c14.4,0,28.7,0,43.1,0c1.6,0,2.5,0.9,2.5,2.4c0,1.6-0.9,2.5-2.6,2.5
			C65.8,48.3,58.6,48.3,51.4,48.3L51.4,48.3L51.4,48.3z"/>
		<path id="_335286672" fill="#FFFFFF" stroke="#FFFFFF" stroke-width="0.2" d="M51.5,38.5c-7.1,0-14.1,0-21.1,0
			c-1.2,0-2.4,0-3.1-1.4c-0.6-1.4,0.2-3.6,2.4-3.5c8.1,0.1,16.2,0,24.3,0c6.2,0,12.5,0,18.7,0c2,0,2.9,0.8,2.9,2.5
			c-0.1,1.6-1,2.3-3,2.3C65.6,38.5,58.5,38.5,51.5,38.5L51.5,38.5L51.5,38.5z"/>
		<path id="_335286768" fill="#FFFFFF" stroke="#FFFFFF" stroke-width="0.2" d="M40.1,67.7c-3.4,0-6.8,0-10.2,0
			c-1.8,0-2.7-0.8-2.8-2.4c0-1.6,1-2.5,2.8-2.5c6.9,0,13.7,0,20.6,0c1.7,0,2.5,0.8,2.4,2.6c0,1.6-0.8,2.2-2.4,2.2
			C47,67.7,43.5,67.6,40.1,67.7L40.1,67.7z"/>
		<path id="_335286864" fill="#FFFFFF" stroke="#FFFFFF" stroke-width="0.2" d="M40,72.5c3.4,0,6.8,0,10.2,0c1.9,0,2.7,0.7,2.7,2.3
			c0,1.8-0.8,2.5-2.7,2.6c-6.8,0-13.6,0-20.4,0c-1.7,0-2.7-0.9-2.7-2.4c0-1.6,1-2.4,2.9-2.4C33.3,72.5,36.6,72.5,40,72.5L40,72.5z"
			/>
		<path id="_335286960" fill="#FFFFFF" stroke="#FFFFFF" stroke-width="0.2" d="M40,53.1c3.5,0,6.9,0,10.4,0c1.8,0,2.5,0.7,2.5,2.3
			c0,1.7-0.7,2.5-2.5,2.5c-6.9,0-13.7,0-20.6,0c-1.8,0-2.7-0.9-2.7-2.4c0-1.6,0.9-2.4,2.7-2.4C33.2,53.1,36.6,53.1,40,53.1L40,53.1
			L40,53.1z"/>
	</g>
	<path fill="#FFFFFF" stroke="#FFFFFF" stroke-width="1.0583" stroke-linecap="round" stroke-linejoin="round" d="M74.5,70.6
		c0.1,0.9-0.1,1.7-0.3,2.4c-0.3,0.7-0.7,1.4-1.3,1.9c-0.6,0.6-1.3,1-2.1,1.4C70,76.7,69.1,77,68,77.1l-0.1,3.3c0,0.1,0,0.2-0.1,0.2
		c0,0.1-0.1,0.1-0.2,0.2c-0.1,0-0.2,0.1-0.4,0.1c-0.2,0-0.4,0.1-0.7,0.1c-0.3,0-0.6,0-0.8,0c-0.2,0-0.4-0.1-0.5-0.1
		c-0.1-0.1-0.2-0.1-0.2-0.2c0-0.1-0.1-0.2,0-0.3l0.1-3.2c-0.5,0-0.9-0.1-1.3-0.2c-0.4-0.1-0.8-0.2-1.1-0.3c-0.3-0.1-0.6-0.2-0.9-0.3
		c-0.2-0.1-0.4-0.2-0.6-0.3c-0.1-0.1-0.2-0.3-0.3-0.5c-0.1-0.2-0.1-0.6-0.2-1c0-0.3,0-0.6,0-0.9c0-0.2,0-0.4,0.1-0.5
		c0-0.1,0.1-0.2,0.2-0.3c0.1-0.1,0.2-0.1,0.3-0.1c0.1,0,0.4,0.1,0.6,0.2c0.3,0.1,0.6,0.3,1.1,0.4c0.4,0.2,1,0.3,1.6,0.4
		c0.6,0.1,1.3,0.2,2.1,0.1c1.3-0.1,2.2-0.4,2.8-0.9c0.6-0.5,0.9-1.1,0.8-1.9c0-0.5-0.2-0.9-0.5-1.2c-0.3-0.3-0.7-0.6-1.1-0.8
		c-0.5-0.2-1-0.4-1.5-0.6c-0.6-0.2-1.1-0.3-1.7-0.5c-0.6-0.2-1.2-0.4-1.8-0.6c-0.6-0.3-1.1-0.6-1.6-1c-0.5-0.4-0.9-0.9-1.2-1.5
		c-0.3-0.6-0.5-1.3-0.5-2.2c-0.1-0.8,0-1.5,0.3-2.1c0.2-0.7,0.6-1.2,1.1-1.7c0.5-0.5,1.1-0.9,1.8-1.3c0.7-0.3,1.5-0.6,2.5-0.8L66,54
		c0-0.1,0-0.2,0.1-0.2c0-0.1,0.1-0.1,0.2-0.2c0.1-0.1,0.2-0.1,0.4-0.1c0.2,0,0.4-0.1,0.7-0.1c0.3,0,0.6,0,0.8,0c0.2,0,0.4,0,0.5,0.1
		c0.1,0.1,0.2,0.1,0.2,0.2c0,0.1,0.1,0.2,0.1,0.3l-0.1,3c0.3,0,0.6,0.1,1,0.1c0.3,0.1,0.7,0.1,1,0.2c0.3,0.1,0.6,0.2,0.8,0.3
		c0.2,0.1,0.4,0.2,0.5,0.3c0.1,0.1,0.2,0.2,0.2,0.2c0.1,0.1,0.1,0.2,0.1,0.3c0,0.1,0.1,0.3,0.1,0.5c0,0.2,0,0.4,0.1,0.6
		c0,0.3,0,0.6,0,0.8c0,0.2,0,0.4-0.1,0.5c0,0.1-0.1,0.2-0.1,0.2S72.3,61,72.3,61c-0.1,0-0.4,0-0.6-0.2c-0.3-0.1-0.6-0.2-1-0.4
		c-0.4-0.1-0.9-0.2-1.4-0.3C68.7,60,68.1,60,67.5,60c-0.6,0-1,0.1-1.4,0.2c-0.4,0.1-0.7,0.3-0.9,0.5c-0.2,0.2-0.4,0.4-0.5,0.7
		c-0.1,0.3-0.1,0.6-0.1,0.9c0,0.5,0.2,0.9,0.5,1.2c0.3,0.3,0.7,0.6,1.1,0.8c0.5,0.2,1,0.4,1.6,0.6c0.6,0.2,1.2,0.3,1.8,0.5
		c0.6,0.2,1.2,0.4,1.8,0.6c0.6,0.2,1.1,0.6,1.6,1c0.5,0.4,0.9,0.9,1.2,1.5C74.3,69,74.5,69.7,74.5,70.6L74.5,70.6z"/>
</g>
</svg>
