<?xml version="1.0" encoding="utf-8"?>
<!-- Generator: Adobe Illustrator 18.1.1, SVG Export Plug-In . SVG Version: 6.00 Build 0)  -->
<svg version="1.1" id="Capa_1" xmlns="http://www.w3.org/2000/svg" xmlns:xlink="http://www.w3.org/1999/xlink" x="0px" y="0px"
	 viewBox="0 0 100 100" enable-background="new 0 0 100 100" xml:space="preserve">
<g>
	<g>
		<g>
			<path fill="#FFFFFF" d="M12.1,65V77c0,0.7,0.6,1.3,1.3,1.3h9.4c0.7,0,1.3-0.6,1.3-1.3V55.8l-6.8,6.8C15.9,64,14.1,64.8,12.1,65z"
				/>
			<path fill="#FFFFFF" d="M28.8,55.6V77c0,0.7,0.6,1.3,1.3,1.3h9.4c0.7,0,1.3-0.6,1.3-1.3V64.4c-2.1,0-4.1-0.9-5.6-2.4L28.8,55.6z"
				/>
			<path fill="#FFFFFF" d="M45.5,63.1v14c0,0.7,0.6,1.3,1.3,1.3h9.4c0.7,0,1.3-0.6,1.3-1.3V51.3L46.8,62
				C46.4,62.4,46,62.8,45.5,63.1z"/>
			<path fill="#FFFFFF" d="M73.4,35.5L62.2,46.6V77c0,0.7,0.6,1.3,1.3,1.3h9.4c0.7,0,1.3-0.6,1.3-1.3V36.3c-0.3-0.3-0.5-0.5-0.7-0.6
				L73.4,35.5z"/>
			<path fill="#FFFFFF" d="M81,15.7c-0.4-0.5-1.1-0.7-2-0.7c-0.1,0-0.2,0-0.2,0c-4.4,0.2-8.7,0.4-13,0.6c-0.6,0-1.4,0.1-2,0.7
				c-0.2,0.2-0.4,0.4-0.5,0.7c-0.6,1.4,0.3,2.3,0.7,2.7l1.1,1.1c0.8,0.8,1.5,1.5,2.3,2.3L41,49.5L29.2,37.6
				c-0.7-0.7-1.7-1.1-2.7-1.1s-1.9,0.4-2.7,1.1L8.1,53.4c-1.5,1.5-1.5,3.8,0,5.3l0.7,0.7c0.7,0.7,1.7,1.1,2.7,1.1s1.9-0.4,2.7-1.1
				L26.5,47l11.8,11.8C39,59.6,40,60,41,60s1.9-0.4,2.7-1.1l29.7-29.7l3.4,3.3c0.4,0.4,1,1,1.8,1c0.4,0,0.7-0.1,1.1-0.3
				c0.2-0.1,0.5-0.3,0.6-0.5c0.7-0.7,0.8-1.5,0.8-2.2c0.1-2.8,0.3-5.6,0.4-8.5l0.2-4.2C81.7,16.9,81.5,16.2,81,15.7z"/>
		</g>
	</g>
	<g>
	</g>
	<g>
	</g>
	<g>
	</g>
	<g>
	</g>
	<g>
	</g>
	<g>
	</g>
	<g>
	</g>
	<g>
	</g>
	<g>
	</g>
	<g>
	</g>
	<g>
	</g>
	<g>
	</g>
	<g>
	</g>
	<g>
	</g>
	<g>
	</g>
</g>
<path fill="#FFFFFF" d="M92.8,50.1c0,13,0,25.9,0,38.9c0,3.3-1.4,4.6-4.9,4.6c-24.9,0-49.7,0-74.6,0c-3.3,0-5.1-1.5-5.1-4.1
	c0-2.6,1.9-4,5.3-4c22.6,0,45.3,0,67.9,0c3.3,0,3.3,0,3.3-3c0-23.6,0-47.1,0-70.7c0-0.6,0-1.3,0.1-1.9c0.4-2,2.5-3.7,4.3-3.5
	c1.9,0.1,3.7,2.1,3.7,4.2C92.8,23.8,92.8,36.9,92.8,50.1z"/>
</svg>
