<?xml version="1.0" encoding="utf-8"?>
<!-- Generator: Adobe Illustrator 18.1.1, SVG Export Plug-In . SVG Version: 6.00 Build 0)  -->
<svg version="1.1" id="Capa_1" xmlns="http://www.w3.org/2000/svg" xmlns:xlink="http://www.w3.org/1999/xlink" x="0px" y="0px"
	 viewBox="0 0 100 100" enable-background="new 0 0 100 100" xml:space="preserve">
<g id="Capa_x0020_1">
	<path fill="#FFFFFF" d="M66.4,74c-1.2,1-2.6,2.1-3.2,2.7c-3,2.9-6,5.7-8.9,8.7c-1.7,1.7-3.3,1.9-5.5,1.1
		c-12.3-4.2-24.6-8.3-37-12.4c-4.9-1.6-4.9-1.6-5.2-6.7c-0.5-10-1-19.9-1.5-29.9c-0.1-1.8,0.6-3,2.1-3.9
		c9.5-6.1,19.1-12.2,28.6-18.2c0.8-0.5,2.1-0.7,3.1-0.4c12,3,23.9,6,35.9,9c3,0.8,3.6,1.5,3.6,4.5c0,2.3-0.1,4.5-0.1,6.9
		C66.9,36,57.8,45.4,57.8,56.9C57.8,63.9,61.2,70.1,66.4,74L66.4,74z M23.9,51.8c0.1-2.4-0.1-4.9,0.1-7.3c0.1-1.4-0.5-2-1.7-2.3
		c-2-0.5-4-1.2-5.9-1.8c-2.2-0.7-4.4-1.3-6.9-2c0,1,0,1.6,0,2.3c0.5,8.9,0.9,17.8,1.3,26.6c0.1,1.6,0.6,2.3,2.1,2.9
		c9.9,3.3,19.9,6.6,29.8,9.9c1.9,0.6,3.8,1.2,5.8,1.9c0.1-0.7,0.2-1.1,0.2-1.5c-0.1-9.7-0.2-19.4-0.3-29c0-0.6-0.7-1.5-1.3-1.7
		c-3.6-1.2-7.3-2.2-11-3.4c-1.1-0.3-1.5,0-1.4,1.1c0.1,2.4,0.1,4.8,0.1,7.1c0,0.5-0.1,1-0.1,1.1 M72.3,27.8l-1.8-0.7
		c-3.5-0.9-7-1.7-10.4-2.6c-1.2-0.3-2.1-0.1-3,0.7c-6.3,5.3-12.7,10.5-19,15.7c-0.3,0.3-0.6,0.7-1,1.2c3.9,1.2,7.6,2.2,11.2,3.4
		c1.3,0.4,2.2,0.2,3.3-0.7c6.3-5.3,12.7-10.6,19-15.9L72.3,27.8L72.3,27.8z M47.5,21.4c-2.6-0.7-5.2-1.4-7.9-1.9
		c-1-0.2-2.2-0.1-3,0.4c-7.4,4.6-14.8,9.4-22.1,14.1c-0.3,0.2-0.5,0.4-1,0.9c0.7,0.3,1.2,0.5,1.7,0.7c3.2,1,6.4,1.8,9.6,2.9
		c1.3,0.4,2.1,0.2,3.1-0.6c6.2-5,12.5-10,18.8-14.9C47.6,22.1,47.7,22.2,47.5,21.4L47.5,21.4z"/>
	<path fill="#FFFFFF" d="M95.6,56.9c0,9-7.5,16.3-16.7,16.2c-9.2,0-16.5-7.3-16.4-16.4c0-9.1,7.4-16.3,16.6-16.3
		C88.2,40.5,95.6,47.9,95.6,56.9z M75.6,63.9c0,0.7,0,1.5,0,2.2c0.1,2,1.5,3.6,3.4,3.6c1.8,0.1,3.4-1.5,3.5-3.5c0.1-1.2,0-2.4,0-3.7
		c0-2.4,0-2.4,2.5-2.4c1.2,0,2.4,0.1,3.7,0c2-0.1,3.6-1.7,3.5-3.5c0-1.8-1.5-3.3-3.6-3.4c-1.4-0.1-2.8-0.1-4.2,0
		c-1.5,0.1-1.9-0.5-1.8-1.9c0.1-1.3,0.1-2.7,0-4c-0.1-2-1.5-3.6-3.4-3.6c-1.9,0-3.4,1.5-3.5,3.7c0,1,0,2.1,0,3.1
		c0,2.7,0,2.7-2.6,2.7c-1.2,0-2.4-0.1-3.7,0c-1.8,0.1-3.3,1.5-3.3,3.3c-0.1,1.7,1.3,3.3,3.1,3.5c0.9,0.1,1.8,0.1,2.7,0.1
		C76.3,60.2,75.6,59.6,75.6,63.9L75.6,63.9z"/>
</g>
</svg>
