<?xml version="1.0" encoding="utf-8"?>
<!-- Generator: Adobe Illustrator 18.1.1, SVG Export Plug-In . SVG Version: 6.00 Build 0)  -->
<svg version="1.1" id="Capa_1" xmlns="http://www.w3.org/2000/svg" xmlns:xlink="http://www.w3.org/1999/xlink" x="0px" y="0px"
	 viewBox="0 0 100 100" enable-background="new 0 0 100 100" xml:space="preserve">
<g>
	<path fill="#FFFFFF" d="M70.5,6.2c-1.2,0-10.2-0.1-12.5,0c-15.7,0-21.5,0-37.1,0c-4,0-9.2,0.3-9.2,4.8c0,4.9,5.2,5.2,9.4,5.2
		c15.7,0,31.3,0.1,47-0.1c4.3-0.1,5.8,1.4,5.2,5.4c-0.1,0.3-1.4,1.6-1.6,1.8C64.4,30,46.9,46.8,42.5,51.2
		c-8.9,8.9-19.1,31.2-0.4,36.2c-9.3,0-18.4,0.3-27.5-0.1C10,87,7.1,82.8,7.1,76.8c-0.1-13.2,0-26.4,0-39.6c0-8.3,0-16.5,0-24.8
		c0-7.3,1.8-9.2,9.5-9.2C31.7,3.1,46.8,3.2,62,3.2c3.7,0,7.3,0,11,0C73.7,3.9,73,6.2,70.5,6.2z"/>
	<path fill="#FFFFFF" d="M78.9,91c-0.1,4-3.2,5.2-6.9,5.2c-19.2,0-38.5,0.1-57.7,0c-5.1,0-7.2-2-7.2-6.9C7,73.5,7.1,57.7,7,41.9
		c0-4.1,1.8-5.9,5.9-5.8c7.1,0.1,34.3-15.9,41.9-15.9c3.5,0,21-0.7,16.9,3.2c-10.4,9.9-15.6,16.6-26.4,26
		c-7.4,6.5-9.7,15.1-12.1,23.7c-1.2,4.3,1.8,9.1,5.9,8.7c8.4-0.8,17.2-1.3,24-7.5c5.2-4.7,10-9.8,16-15.6C79,70.5,79.2,80.9,78.9,91
		z"/>
	<path fill="#FFFFFF" d="M48.6,56.7c9-9.5,18-18.9,26.9-28.4c4.4,4.5,8.4,8.6,11.7,11.9C78.5,49.5,69.4,59,60.4,68.5
		C56,64.2,52,60,48.6,56.7z"/>
	<path fill="#FFFFFF" d="M97.4,23.3c4.3,4.5,3.5,6.6-4.2,12.7c-4.2-4.2-8.3-8.2-12.8-12.6C88.4,14.7,89.4,14.7,97.4,23.3z"/>
	<path fill="#FFFFFF" d="M37.8,77c1.9-6.3,3.4-11.2,4.9-16c4,4.1,7.8,8,11.8,12.2C49.5,74.4,44.4,75.5,37.8,77z"/>
	<path fill="#FFFFFF" d="M71.4,7.9H16.2c-0.2,0-0.4,0.2-0.4,0.4v0.5c0,0.2,0.2,0.4,0.4,0.4h55.2c0.2,0,0.4-0.2,0.4-0.4V8.3
		C71.8,8.1,71.6,7.9,71.4,7.9z"/>
	<path fill="#FFFFFF" d="M75.1,10.8H16.2c-0.2,0-0.4,0.2-0.4,0.4v0.5c0,0.2,0.2,0.4,0.4,0.4h58.9c0.2,0,0.4-0.2,0.4-0.4v-0.5
		C75.6,11,75.4,10.8,75.1,10.8z"/>
	<path fill="#FFFFFF" d="M72.7,13.3H18.8c-0.2,0-0.4,0.2-0.4,0.4v0.5c0,0.2,0.2,0.4,0.4,0.4h53.9c0.2,0,0.4-0.2,0.4-0.4v-0.5
		C73.2,13.5,73,13.3,72.7,13.3z"/>
</g>
</svg>
