<?xml version="1.0" encoding="utf-8"?>
<!-- Generator: Adobe Illustrator 18.1.1, SVG Export Plug-In . SVG Version: 6.00 Build 0)  -->
<svg version="1.1" id="Capa_1" xmlns="http://www.w3.org/2000/svg" xmlns:xlink="http://www.w3.org/1999/xlink" x="0px" y="0px"
	 viewBox="0 0 612 792" enable-background="new 0 0 612 792" xml:space="preserve">
<path fill="#FFFFFF" d="M311.4,221.7c6.8,0,13.7,0,20.5,0c0.9,0.2,1.7,0.5,2.6,0.6c27.4,1.9,53,9.8,76.4,24.1
	c45.3,27.8,73.2,67.8,83,120.2c1.2,6.6,1.8,13.2,2.7,19.9c0,6.8,0,13.7,0,20.5c-0.3,2.5-0.6,4.9-0.8,7.4c-4.2,37.7-18.6,70.9-44,99
	c-27,29.9-60.3,48.6-100.1,55.6c-6.6,1.2-13.3,1.8-19.9,2.7c-6.8,0-13.7,0-20.5,0c-0.9-0.2-1.7-0.5-2.6-0.6
	c-27.4-1.9-53-9.8-76.4-24.1c-45.3-27.8-73.2-67.9-83-120.2c-1.2-6.6-1.8-13.2-2.7-19.9c0-6.8,0-13.7,0-20.5
	c0.3-2.5,0.6-4.9,0.8-7.4c4.2-37.7,18.6-70.9,44-99c26.9-29.9,60.3-48.6,100.1-55.6C298.1,223.2,304.8,222.6,311.4,221.7z
	 M322.7,510.3c6.5-0.8,14-1.1,21.2-2.6c30.1-6.3,54.1-22.2,71.4-47.6c30.2-44.4,24.5-104.3-13.2-142.5c-8.5-8.6-22.6-6.4-27.3,4.6
	c-3.2,7.5-1,13.9,4.4,19.6c16.1,17.2,23.6,37.5,21.9,61.1c-1.7,23.3-11.8,42.5-30.2,56.7c-29.9,23.1-68.2,22.9-98.4,0.1
	c-28.4-21.5-38.6-63.1-23.5-95.4c4.3-9.2,10.3-17.1,17-24.6c6.2-7,5.4-17-1.2-23c-6.7-6.1-16.6-5.9-23.1,0.7c-8,8-14.9,17-19.9,27.1
	c-16.9,34-18.2,68.5-1,102.5C241.4,488,276.2,508,322.7,510.3z M338.8,353.2C338.8,353.2,338.8,353.2,338.8,353.2
	c0-13.8,0-27.6,0-41.4c0-1.8,0-3.7-0.4-5.4c-1.9-8.3-9.5-13.7-17.7-12.9c-8.6,0.8-14.9,7.6-14.9,17c-0.1,28.5-0.2,57,0.1,85.4
	c0,3.4,1.4,7.2,3.2,10.1c3.8,6,11.4,8.2,18.1,6.1c6.7-2.1,11.5-8.1,11.6-15.3C338.9,382.4,338.8,367.8,338.8,353.2z"/>
</svg>
