<?xml version="1.0" encoding="utf-8"?>
<!-- Generator: Adobe Illustrator 18.1.1, SVG Export Plug-In . SVG Version: 6.00 Build 0)  -->
<svg version="1.1" id="Capa_1" xmlns="http://www.w3.org/2000/svg" xmlns:xlink="http://www.w3.org/1999/xlink" x="0px" y="0px"
	 viewBox="0 0 612 792" enable-background="new 0 0 612 792" xml:space="preserve">
<path fill="#FFFFFF" d="M122.9,328c2.1-8.5,6.1-15.7,14.3-19.6c3-1.4,6.5-2.7,9.8-2.7c12.2-0.3,24.4-0.1,36.9-0.1
	c0.1,0.9,0.3,1.9,0.3,2.8c0,16.1,0.1,32.1-0.1,48.2c0,1.2-1.1,3.3-2,3.6c-21.3,5.9-32.3,20.3-36.4,41.6
	c-7,36.5-14.7,72.8-22.2,109.2c-0.1,0.5-0.4,0.9-0.6,1.4C122.9,450.8,122.9,389.4,122.9,328z"/>
<path fill="#FFFFFF" d="M346.9,378.7c50.6,0,101.1,0,151.7,0c4.2,0,8.2,0.4,11.4,3.4c3.7,3.5,4.9,7.8,3.9,12.9
	c-7.2,34.9-14.2,69.8-21.4,104.7c-3.2,15.6-6.4,31.1-9.5,46.7c-3,15.4-12.4,23.2-27.9,23.2c-96.7,0-193.4,0-290,0
	c-13.3,0-22.9-6.2-26.2-17.9c-1.3-4.7-1.3-10.2-0.4-15c8.9-44.9,18.2-89.8,27.3-134.6c3-14.9,13.3-23.3,28.6-23.3
	C245.3,378.7,296.1,378.7,346.9,378.7z"/>
<path fill="#FFFFFF" d="M436.7,358.7c-77.8,0-155.1,0-232.7,0c0-1.6,0-3,0-4.4c0-38.7,0-77.5,0-116.2c0-10.2,3.9-14.1,14-14.1
	c68.3,0,136.6,0,204.8,0c9.8,0,13.8,3.9,13.8,13.6c0,39.1,0,78.2,0,117.3C436.7,356.1,436.7,357.2,436.7,358.7z M320.1,332.6
	c15.8,0,31.6,0,47.4,0c10.1,0,20.1,0.1,30.2,0c6.2-0.1,10.6-4.4,10.5-10.2c-0.1-5.8-4.6-9.6-11.5-9.6c-50.7,0-101.4,0-152,0
	c-1.1,0-2.3-0.1-3.4,0.1c-4,0.7-6.8,3-8.1,6.7c-1.3,3.5-0.7,7.2,2.1,9.5c2.4,1.9,5.8,3.4,8.8,3.4
	C269.4,332.7,294.8,332.6,320.1,332.6z M320.3,281.5c11.1,0,22.2,0,33.2,0c14.8,0,29.5,0,44.3,0c6.7,0,11.2-5.2,10.3-11.4
	c-0.7-5-5.1-8.3-11.2-8.3c-51.1,0-102.1,0-153.2,0c-1.3,0-2.6,0.1-3.8,0.5c-7.2,1.9-9.8,10.6-4.7,16.1c2.4,2.6,5.5,3.3,9,3.2
	C269.6,281.4,294.9,281.5,320.3,281.5z"/>
<path fill="#FFFFFF" d="M488.7,358.7c-10.6,0-21.2,0-32.1,0c0-6.6,0-13,0-19.4C473.6,336.1,487.2,344.3,488.7,358.7z"/>
</svg>
