<?xml version="1.0" encoding="utf-8"?>
<!-- Generator: Adobe Illustrator 18.1.1, SVG Export Plug-In . SVG Version: 6.00 Build 0)  -->
<svg version="1.1" id="Capa_1" xmlns="http://www.w3.org/2000/svg" xmlns:xlink="http://www.w3.org/1999/xlink" x="0px" y="0px"
	 viewBox="0 0 612 792" enable-background="new 0 0 612 792" xml:space="preserve">
<path fill="#FFFFFF" d="M121.1,368.5c1-6.8,1.6-13.7,2.9-20.5c9.1-47.2,33.7-84.3,73.5-111c33.2-22.3,70.3-32.2,109.9-27.4
	c71,8.5,120.2,46.9,144.6,114c17.9,49.3,11.6,97.4-14.7,142.8c-0.4,0.7-1,1.4-1.6,2.4c-8.6-7.3-17.2-14.5-25.5-21.9
	c-0.6-0.5-0.3-2.7,0.3-3.7c6.6-12.5,11.7-25.5,13.9-39.4c8.4-53.9-8.4-98.4-51.2-132.3c-28-22.2-60.6-30.7-96-27.1
	c-33.3,3.4-61.6,17.7-84.7,42.2c-17,18.1-28.4,39.4-33.5,63.7c-7.1,34-2.2,66.3,15.2,96.5c14.9,25.7,36.1,44.7,63.3,56.4
	c29.7,12.8,60.4,14.7,91.6,5.7c16.1-4.6,30.8-12.2,44.2-22.4c0.9-0.7,1.8-1.2,2.9-2c8.8,7.5,17.6,15,26.8,22.8
	c-4.1,3.3-7.8,6.5-11.7,9.4c-27.8,19.7-58.5,30.6-92.7,32.3c-81.5,4.1-157.4-52.8-174.3-136.8c-1.5-7.5-2.2-15.2-3.3-22.7
	C121.1,382.4,121.1,375.5,121.1,368.5z"/>
<path fill="#FFFFFF" d="M386.1,426.8c-8.8-7.5-17.5-14.8-25.9-22.2c-0.8-0.7-1-2.7-0.7-3.8c5.2-16.4,4.5-32.5-1.7-48.4
	c-17.3-45.2-77-59.8-113.1-27.6c-31.3,27.9-33.4,73.1-4.8,103.8c20,21.5,54.4,28.2,80.8,15.4c4-1.9,6.4-1.6,9.6,1.4
	c7.4,6.8,15.2,13.1,22.8,19.6c-35.1,27.1-94.4,30.2-135.8-9.7c-38.2-36.9-44.6-98.3-8.8-143c33.7-42,94.5-53.1,141.6-21.9
	C395.9,320.7,410.4,379.6,386.1,426.8z"/>
<path fill="#FFFFFF" d="M558.9,572.8c-11-0.6-21.1-1.1-31.2-1.8c-6.1-0.4-8.9,2.5-8.2,8.6c1.2,10.3,2.2,20.6,3.3,31.6
	c-1.7-1.4-2.8-2.2-3.9-3.2c-11-9.6-22-19.3-33.1-28.8c-1.9-1.7-2.9-3.2-1.9-5.7c2.5-6.5,0-10.7-5.3-15.2
	c-46.1-38.8-91.9-78-137.9-117c-4.2-3.6-7.1-7.7-6.6-13.4c0.4-5.7,3.3-9.8,8.5-12.1c5.5-2.4,10.7-1.4,15.3,2.4
	c8.3,6.9,16.5,13.9,24.7,20.9c38.9,33.1,77.8,66.2,116.7,99.4c2.5,2.1,4.6,3.1,7.4,1c6.5-4.8,11.5-3,17.1,2.4
	c10.1,9.7,21.1,18.5,31.7,27.7C556.4,570.4,557.3,571.3,558.9,572.8z"/>
<path fill="#FFFFFF" d="M329.4,378.1c-6.9-5.9-13.6-11.5-20.3-17.2c-4.2-3.6-8.9-6.1-14.5-6.9c-10-1.4-20.8,4.2-25.4,13.3
	c-4.8,9.5-3.7,21.2,3.7,28.3c7.1,6.9,14.9,13.1,22.3,19.6c1.2,1,2.3,2,3.7,3.2c-14,3.8-31.1-3.3-39.5-16c-9-13.6-8.7-32,0.9-44.3
	c11.2-14.5,27.3-19.3,44.7-13.4C318.3,349.2,329.5,364.3,329.4,378.1z"/>
<circle fill="#FFFFFF" cx="291.7" cy="378.8" r="41.9"/>
</svg>
