<?xml version="1.0" encoding="utf-8"?>
<!-- Generator: Adobe Illustrator 18.1.1, SVG Export Plug-In . SVG Version: 6.00 Build 0)  -->
<svg version="1.1" id="Capa_1" xmlns="http://www.w3.org/2000/svg" xmlns:xlink="http://www.w3.org/1999/xlink" x="0px" y="0px"
	 viewBox="0 0 612 792" enable-background="new 0 0 612 792" xml:space="preserve">
<path fill="#FFFFFF" d="M120.3,529.1c1-6.9,2.1-13.8,2.9-20.7c3.7-29.3,7.4-58.6,11-87.8c3.6-28.9,7.2-57.8,10.8-86.7
	c2.3-18.5,4.6-37.1,7-55.6c1-7.4,4-9.6,11.4-8.8c6.2,0.7,12.4,1.4,18.5,2.3c3.6,0.5,5.7,3.1,6.2,6.6c0.5,3.4-0.9,6.1-3.9,7.9
	c-0.6,0.4-1.3,0.8-1.9,1.1c-10.8,5.6-15.1,14.3-13.9,26.4c2.3,22.7,4.3,45.4,6.4,68.1c2.4,25.3,4.8,50.6,7.1,75.9
	c2.5,26.5,5,53.1,7.4,79.6c0.5,5.9-3.6,9.6-10,8.9c-9.5-1-19.1-2.2-28.6-3.3c-6.9-0.8-13.8-1.8-20.8-2.4c-4.5-0.4-7.8-2.1-9.8-6.3
	C120.3,532.6,120.3,530.9,120.3,529.1z"/>
<path fill="#FFFFFF" d="M349.8,348.6c8.8-0.1,14.8-2.7,19.8-7.7c7.1-7.2,14.4-14.1,21.3-21.5c3.8-4,7.7-5.3,13-4
	c12.3,2.9,24.4,1.9,35.6-4.1c6-3.3,11.2-8.1,16.6-12.4c1.4-1.1,2.5-2.8,3.7-4.2c2.4-2.6,5.3-3.8,8.7-2.7c3.5,1.1,5.1,3.7,5.6,7.2
	c1.5,11.6,3,23.2,4.4,34.8c3.4,27.2,6.8,54.4,10.2,81.6c3.3,26.8,6.7,53.6,10,80.5c1.4,10.9,2.7,21.8,4.1,32.6
	c1,7.4-1.5,10.9-8.8,11.7c-37,4.3-74,8.5-111,12.7c-40.3,4.6-80.7,9.3-121,13.9c-14.5,1.7-29,3.2-43.4,4.9c-6.5,0.7-10.1-2-10.7-8.3
	c-1.4-14-2.6-28-3.9-42.1c-2.4-25.3-4.8-50.6-7.2-75.9c-2.1-21.8-4.1-43.7-6.2-65.5c-2.1-22.8-4.2-45.7-6.3-68.5
	c-0.6-6.8,1.8-10,8.7-10.8c42.4-5,84.9-10,127.3-15c6.1-0.7,12.1-1.5,18.2-2.1c3.1-0.3,5.7,0.5,7.6,3c2.5,3.3,2.2,7.4-1.1,10.8
	c-3.5,3.7-7.3,7.1-10.7,10.9c-11.1,12.6-7.5,31.2,7.4,37.9C344.7,347.8,348.1,348.2,349.8,348.6z"/>
<path fill="#FFFFFF" d="M382.3,283.6c-12.9-21.9-5.7-43.7,10.6-55.4c14.9-10.7,36.6-8.8,50.4,4.6c13.4,13,15.8,34.5,5.4,50
	c-10.5,15.7-32.5,25.2-55.5,11.7c-5.8,5.8-11.7,11.7-17.6,17.6c-5.5,5.6-11.1,11.1-16.7,16.6c-4.7,4.7-9.5,5.3-13,1.6
	c-3.4-3.5-2.8-8.3,1.6-12.8c10.5-10.5,21-21,31.5-31.4C380.1,285.3,381.2,284.5,382.3,283.6z"/>
</svg>
