<?xml version="1.0" encoding="utf-8"?>
<!-- Generator: Adobe Illustrator 18.1.1, SVG Export Plug-In . SVG Version: 6.00 Build 0)  -->
<svg version="1.1" id="Capa_1" xmlns="http://www.w3.org/2000/svg" xmlns:xlink="http://www.w3.org/1999/xlink" x="0px" y="0px"
	 viewBox="0 0 612 792" enable-background="new 0 0 612 792" xml:space="preserve">
<g>
	<polygon fill="#34EA7E" points="126.8,388.5 117.6,387.2 118.7,378.9 120.1,379.1 119.2,386.1 127,387.2 	"/>
	<g>
		<polygon fill="#34EA7E" points="110.3,391 117.9,386.3 123.2,393.4 122,394.1 117.5,388.1 111.1,392 		"/>
		<g>
			<path fill-rule="evenodd" clip-rule="evenodd" fill="#34EA7E" d="M101.6,373.1c-3.5,2.4-6.2,6.5-6.3,12.5v4.4l-12.9-7.3l-4.1-2.5
				l-21.6-12c0,14.9-2,34.4,2.7,45.4c2.5,5.9,6.3,8.5,12,12c7.1,4.4,11.3,6.7,15.7,9.2l16.9,9.2l0-23.9l1.4-0.8l15.7-9.2
				c11.6-7.1,22.1-11.7,22.1-28l-0.1-33.7l-31,17.7 M104.6,409.5l0.1-1.3v-16c0-9.7,4.8-14,10.9-17.5c4.2-2.4,14.5-8.9,18.2-10.2
				v13.1c-0.3,19.3-3.5,15-21.1,27 M77.1,389.9c9.7,5,17.1,9.5,17.9,14c0.5,0.9,0.3,3.5,0.3,4.9l-0.2,20l-4.9-3.3l-17.5-10.9
				c-4.1-2.8-7.3-7.8-7.3-14.6v-16"/>
			<g>
				<defs>
					<path id="SVGID_1_" d="M101.5,373c-3.5,2.4-6.2,6.5-6.3,12.5v4.4l-12.9-7.3l-4.1-2.5l-21.6-12c0,14.9-2,34.4,2.7,45.4
						c2.5,5.9,6.3,8.5,12,12c7.1,4.4,11.3,6.7,15.7,9.2l16.9,9.2l0-23.9l1.4-0.8l15.7-9.2c11.6-7.1,22.1-11.7,22.1-28l-0.1-33.7
						l-31,17.7 M104.6,409.5l0.1-1.3v-16c0-9.7,4.8-14,10.9-17.5c4.2-2.4,14.5-8.9,18.2-10.2v13.1c-0.3,19.3-3.5,15-21.1,27
						 M77,389.9c9.7,5,17.1,9.5,17.9,14c0.5,0.9,0.3,3.5,0.3,4.9l-0.2,20l-4.9-3.3l-17.5-10.9c-4.1-2.8-7.3-7.8-7.3-14.6v-16"/>
				</defs>
				<clipPath id="SVGID_2_">
					<use xlink:href="#SVGID_1_"  overflow="visible"/>
				</clipPath>
				<linearGradient id="SVGID_3_" gradientUnits="userSpaceOnUse" x1="-104.3243" y1="407.2832" x2="184.8953" y2="407.2832">
					<stop  offset="0" style="stop-color:#DA00A0"/>
					<stop  offset="0.543" style="stop-color:#65B1E8"/>
					<stop  offset="1" style="stop-color:#FDF93B"/>
				</linearGradient>
				<polygon clip-path="url(#SVGID_2_)" fill="url(#SVGID_3_)" points="106.7,447.3 75.5,447.3 34.5,367.2 65.7,367.2 				"/>
			</g>
		</g>
	</g>
</g>
<g>
	<path fill="#FFFFFF" d="M179.9,412.2c0,7.2,2.4,11.4,11.6,11.4c6,0,14.3-0.7,21.5-2l2.6,16.2c-8.3,1.7-15.8,2.6-24.2,2.6
		c-21,0-30.4-10.3-30.4-25.3v-34.5c0-15,9.4-25.3,30.4-25.3c8.4,0,15.9,0.9,24.2,2.6l-2.6,16.2c-7.3-1.2-15.5-2-21.5-2
		c-9.3,0-11.6,4.2-11.6,11.4V412.2z"/>
	<path fill="#FFFFFF" d="M248.6,413.5h-11v25.7h-18.8v-82.5h34.7c20.3,0,27.8,7.9,27.8,23.4v10.2c0,10.3-3.8,17.2-12.1,20.7
		l20.2,28.3H267L248.6,413.5z M262.5,381.8c0-6.2-2.4-8.7-10-8.7h-14.9v24.3h14.9c8,0,10-2.8,10-9V381.8z"/>
	<path fill="#FFFFFF" d="M352.7,415.1c0,12.5-8.8,25.3-32.3,25.3c-23.5,0-32.3-12.8-32.3-25.3v-34.5c0-12.5,8.8-25.3,32.3-25.3
		c23.5,0,32.3,12.8,32.3,25.3V415.1z M333.9,382.3c0-6.4-4.1-10.4-13.5-10.4c-9.4,0-13.5,4-13.5,10.4v31.2c0,6.4,4.1,10.4,13.5,10.4
		c9.4,0,13.5-4,13.5-10.4V382.3z"/>
	<path fill="#FFFFFF" d="M375.6,384.9v54.3h-17.9v-82.5h23l27.4,56.9v-56.9H426v82.5h-23.2L375.6,384.9z"/>
	<path fill="#FFFFFF" d="M495.6,415.1c0,12.5-8.8,25.3-32.3,25.3c-23.5,0-32.3-12.8-32.3-25.3v-34.5c0-12.5,8.8-25.3,32.3-25.3
		c23.5,0,32.3,12.8,32.3,25.3V415.1z M476.8,382.3c0-6.4-4.1-10.4-13.5-10.4c-9.4,0-13.5,4-13.5,10.4v31.2c0,6.4,4.1,10.4,13.5,10.4
		c9.4,0,13.5-4,13.5-10.4V382.3z"/>
	<path fill="#FFFFFF" d="M525,440.4c-9.6,0-19.8-2.1-26.9-5.3l3.1-14.4c7.6,2.4,15.4,4,24,4c9.6,0,11.5-1.9,11.5-8.8
		c0-7.4-0.4-8.3-14-11.3c-20.2-4.3-23.2-8.3-23.2-26.1c0-16.5,5.9-23.1,28.8-23.1c7.3,0,16,0.7,25.3,2.7l-1.9,15.6
		c-9.5-1.6-15.6-2.4-23.2-2.4c-8.4,0-10.3,1.5-10.3,7.6c0,7.9,0.4,8.1,13.5,11.2c22.5,5.3,23.7,9.7,23.7,25.9
		C555.6,432.4,550.2,440.4,525,440.4z"/>
</g>
</svg>
